<?xml version="1.0" encoding="UTF-8"?>
<svg version="1.1" xmlns="http://www.w3.org/2000/svg" width="580" height="580">
<path d="M0 0 C191.4 0 382.8 0 580 0 C580 191.4 580 382.8 580 580 C388.6 580 197.2 580 0 580 C0 388.6 0 197.2 0 0 Z " fill="#FBFCF8" transform="translate(0,0)"/>
<path d="M0 0 C2.08150533 -0.00219285 4.16248342 -0.02047586 6.24389648 -0.03930664 C23.42256843 -0.11223342 39.80923459 2.50346073 56.21069336 7.62280273 C57.67539062 8.07236328 57.67539062 8.07236328 59.16967773 8.53100586 C61.99981049 9.403709 64.82506701 10.29021474 67.64819336 11.18530273 C68.4618335 11.44239014 69.27547363 11.69947754 70.11376953 11.96435547 C82.71549546 16.04276141 94.34741819 22.35722201 105.64819336 29.18530273 C106.22956055 29.53318848 106.81092773 29.88107422 107.40991211 30.23950195 C116.57027724 35.7625146 124.66714862 42.08112278 132.64819336 49.18530273 C133.54538086 49.97163086 134.44256836 50.75795898 135.36694336 51.56811523 C137.82348415 53.74412513 140.24456654 55.95105901 142.64819336 58.18530273 C143.39584961 58.87881836 144.14350586 59.57233398 144.91381836 60.28686523 C157.13102557 72.03417986 169.33607663 87.92282476 176.64819336 103.24780273 C177.72527848 105.44702217 178.69831222 107.24945488 180.21069336 109.18530273 C182.02868125 111.71467719 182.86651504 114.32471416 183.89819336 117.24780273 C184.63891421 119.3352472 184.63891421 119.3352472 186.14819336 121.62280273 C189.93693168 128.09523069 191.33882127 135.67273347 193.09277344 142.8996582 C194.21231796 147.50904543 195.46662244 152.06194738 196.77319336 156.62280273 C200.52447312 170.80650226 200.97752568 185.11897308 200.90893555 199.71020508 C200.89803981 202.47425435 200.90899417 205.23767707 200.92163086 208.00170898 C200.92031188 209.77644999 200.91775495 211.55119061 200.91381836 213.32592773 C200.91786682 214.14361633 200.92191528 214.96130493 200.92608643 215.80377197 C200.89056453 220.11758274 200.46113139 223.2075484 198.64819336 227.18530273 C198.28825832 228.98329755 197.98122513 230.79242784 197.71850586 232.60717773 C196.6196035 239.6220887 195.09404577 246.51302969 193.52319336 253.43530273 C193.1074707 255.28575195 193.1074707 255.28575195 192.68334961 257.17358398 C192.00790108 260.17816536 191.32947153 263.18203887 190.64819336 266.18530273 C189.98819336 266.18530273 189.32819336 266.18530273 188.64819336 266.18530273 C188.56569336 267.17530273 188.48319336 268.16530273 188.39819336 269.18530273 C187.65727821 274.45761199 185.41984241 279.41365368 181.64819336 283.18530273 C177.14773021 282.935277 174.23031108 280.7677597 170.64819336 278.18530273 C171.5427991 275.22622222 172.37466458 272.60885561 174.05834961 270.00170898 C176.09095 266.40095988 177.1508883 262.77300947 178.27319336 258.81030273 C178.59803711 257.71588867 178.59803711 257.71588867 178.92944336 256.59936523 C180.22068506 252.13581367 181.10032804 247.79954617 181.64819336 243.18530273 C182.63819336 242.85530273 183.62819336 242.52530273 184.64819336 242.18530273 C184.61338867 241.2069043 184.61338867 241.2069043 184.57788086 240.20874023 C184.47016846 234.99238251 184.89666976 231.13078112 186.64819336 226.18530273 C188.16318805 217.16725261 187.89130325 207.86586715 187.89819336 198.74780273 C187.8988681 197.9450592 187.89954285 197.14231567 187.90023804 196.31524658 C187.88429625 184.37440423 187.50706121 172.83546097 184.64819336 161.18530273 C184.36685547 160.02345459 184.36685547 160.02345459 184.07983398 158.83813477 C181.68832962 149.20826646 178.76220001 139.96770359 174.61694336 130.93920898 C172.11264787 125.46580558 170.24751726 119.98890993 168.64819336 114.18530273 C167.98819336 114.18530273 167.32819336 114.18530273 166.64819336 114.18530273 C166.33366211 113.53303711 166.01913086 112.88077148 165.69506836 112.20874023 C163.28493785 107.28684721 160.76250562 102.7060786 157.64819336 98.18530273 C157.06553711 97.1244043 156.48288086 96.06350586 155.88256836 94.97045898 C145.83734555 77.30074361 129.06436241 61.39436998 112.56103516 49.8503418 C107.74018916 46.46129014 107.74018916 46.46129014 106.64819336 43.18530273 C105.60211914 43.04801758 105.60211914 43.04801758 104.53491211 42.90795898 C101.0341066 42.0315733 98.54132292 40.5035694 95.46069336 38.62280273 C77.97193242 28.29226503 58.76962079 21.24431503 38.96459961 16.94702148 C35.64819336 16.18530273 35.64819336 16.18530273 33.64819336 15.18530273 C-0.57149792 9.23594016 -36.32039349 12.97996327 -68.35180664 26.18530273 C-69.53000977 26.64678711 -70.70821289 27.10827148 -71.92211914 27.58374023 C-84.94231527 32.85590019 -96.4265538 40.29939115 -107.74243164 48.53295898 C-110.35180664 50.18530273 -110.35180664 50.18530273 -113.35180664 50.18530273 C-116.49465488 47.42572867 -118.60334238 44.95618419 -120.35180664 41.18530273 C-112.31684098 34.9759197 -104.15238259 29.26730117 -95.35180664 24.18530273 C-94.56378662 23.72921631 -93.7757666 23.27312988 -92.96386719 22.80322266 C-88.52769084 20.28488367 -84.08344407 18.11300687 -79.35180664 16.18530273 C-77.76819336 15.47180664 -77.76819336 15.47180664 -76.15258789 14.74389648 C-51.59482367 4.24451301 -26.50557697 -0.00310479 0 0 Z " fill="#0E0E0D" transform="translate(297.351806640625,87.814697265625)"/>
<path d="M0 0 C1.97909398 -0.02686553 3.95828971 -0.04633375 5.9375 -0.0625 C7.03964844 -0.07410156 8.14179687 -0.08570313 9.27734375 -0.09765625 C12 0 12 0 13 1 C13.23929157 4.19055427 13.39393457 7.37367419 13.51757812 10.5703125 C13.7815075 15.88873832 14.6966466 20.84211912 16 26 C16.28073364 27.1147168 16.28073364 27.1147168 16.56713867 28.25195312 C19.56943759 39.9603687 19.56943759 39.9603687 24.10546875 51.1328125 C25.02707273 53.0565099 25.73630197 54.98650398 26.4375 57 C27.77461915 60.62932341 29.50549146 63.86760691 31.44140625 67.2109375 C32.65677214 69.38580278 33.79345454 71.5603321 34.90234375 73.7890625 C43.81472497 91.53528354 55.90145177 106.11587836 70 120 C70.825 120.845625 71.65 121.69125 72.5 122.5625 C79.39125753 129.28147609 86.56013468 134.99737878 94.625 140.25 C95.52734375 140.848125 96.4296875 141.44625 97.359375 142.0625 C102.15290281 145.22091774 106.98456399 148.20869 112 151 C113.1875 151.70833333 114.375 152.41666667 115.5625 153.125 C118.72479627 154.84988888 121.58479117 155.90713317 125 157 C126.40183887 157.61141106 127.79716364 158.2378654 129.1875 158.875 C138.88913526 163.23427376 148.59365776 166.02419451 159 168.1875 C160.19367188 168.44724609 161.38734375 168.70699219 162.6171875 168.97460938 C173.3562802 171.24814815 183.78659671 172.19537035 194.75 172.1875 C195.69939453 172.18814453 196.64878906 172.18878906 197.62695312 172.18945312 C204.51501466 172.13822346 211.10383255 171.56083499 217.90625 170.4375 C220.98201576 170.00254323 223.89831107 169.92526051 227 170 C228.99785435 174.1205746 229.17835515 177.45194365 229 182 C222.47112323 184.88038681 216.16831663 185.16597766 209.1484375 185.203125 C208.29432281 185.20882507 207.44020813 185.21452515 206.56021118 185.22039795 C204.74978866 185.22982155 202.93934918 185.23637141 201.12890625 185.24023438 C198.43196031 185.24979801 195.73582525 185.28078504 193.0390625 185.3125 C140.11314029 185.63110441 92.34566179 161.16013794 55.25 124.5625 C37 106.27680434 37 106.27680434 37 101 C36.34 101 35.68 101 35 101 C33.59765625 98.98828125 33.59765625 98.98828125 32.0625 96.3125 C31.55847656 95.44238281 31.05445313 94.57226562 30.53515625 93.67578125 C29.77525391 92.35126953 29.77525391 92.35126953 29 91 C28.48695313 90.15179688 27.97390625 89.30359375 27.4453125 88.4296875 C26.15144591 86.25459285 24.95269499 84.07104716 23.8125 81.8125 C23.46832031 81.13832031 23.12414062 80.46414063 22.76953125 79.76953125 C22 78 22 78 22 76 C21.34 76 20.68 76 20 76 C16.19823532 68.52756598 12.94476903 61.2482157 10.74609375 53.13671875 C10.11132208 50.82167141 10.11132208 50.82167141 8 49 C7.34570312 46.72851562 7.34570312 46.72851562 6.78125 43.90625 C6.57113281 42.875 6.36101562 41.84375 6.14453125 40.78125 C5.82548828 39.15703125 5.82548828 39.15703125 5.5 37.5 C5.18095703 35.9221875 5.18095703 35.9221875 4.85546875 34.3125 C4.43193692 32.21302932 4.01313094 30.11259959 3.59912109 28.01123047 C3.21813919 26.09638497 2.82642951 24.18361916 2.42041016 22.27392578 C1.33019748 17.10804062 0.66265122 12.14860563 0.375 6.875 C0.30023438 5.57304687 0.22546875 4.27109375 0.1484375 2.9296875 C0.07496094 1.47949219 0.07496094 1.47949219 0 0 Z " fill="#0E0F0D" transform="translate(100,301)"/>
<path d="M0 0 C4.48071284 0.84743917 6.63834347 3.02034989 10 6 C9.49895039 10.4311575 8.06423223 12.44373112 5 15.625 C1.67052551 19.17608769 -1.50637316 22.77290272 -4.5625 26.5625 C-7.30264988 29.94850843 -10.08580641 33.26264831 -13 36.5 C-16.68126676 40.59595491 -20.16873166 44.82754207 -23.640625 49.1015625 C-28.85060339 55.50190019 -34.09730201 61.87786486 -39.5625 68.0625 C-43.11309806 72.08204497 -46.48563231 76.23964731 -49.87109375 80.3984375 C-53.52937538 84.86892477 -57.31505659 89.22136256 -61.125 93.5625 C-62.4179406 95.04055325 -63.70940716 96.51989631 -65 98 C-65.43086914 98.49387207 -65.86173828 98.98774414 -66.30566406 99.49658203 C-72.88786234 107.05819332 -79.23680318 114.75354351 -85.39453125 122.6640625 C-87.85551982 125.82414363 -90.35205882 128.95156757 -92.875 132.0625 C-93.89207031 133.31740234 -93.89207031 133.31740234 -94.9296875 134.59765625 C-97 137 -97 137 -99.5234375 139.515625 C-101.80451406 141.80389738 -103.78528702 144.12728773 -105.75 146.6875 C-106.34296875 147.45449219 -106.9359375 148.22148437 -107.546875 149.01171875 C-109.03634306 150.93377015 -109.03634306 150.93377015 -110 153 C-113.39192363 152.40716379 -115.2107757 151.23256811 -117.75 148.9375 C-118.36359375 148.38964844 -118.9771875 147.84179688 -119.609375 147.27734375 C-120.06828125 146.85582031 -120.5271875 146.43429687 -121 146 C-120.57639123 141.05789766 -118.46598042 139.3792104 -115 136 C-113.03821045 133.83000084 -111.14413154 131.60411449 -109.25 129.375 C-108.46012695 128.44977539 -108.46012695 128.44977539 -107.65429688 127.50585938 C-103.82123442 123.00212743 -100.07106171 118.43536587 -96.34375 113.84375 C-93.60697684 110.5231319 -90.80886743 107.2596244 -88 104 C-82.12484772 97.17846484 -76.41580932 90.2325037 -70.76171875 83.2265625 C-65.6900483 76.97237821 -60.41554412 70.95709853 -55 65 C-52.64151165 62.35466848 -50.31476299 59.68364952 -48 57 C-47.56333008 56.49500977 -47.12666016 55.99001953 -46.67675781 55.46972656 C-45.19669297 53.75444603 -43.72273818 52.03407349 -42.25 50.3125 C-41.77771973 49.76553467 -41.30543945 49.21856934 -40.81884766 48.6550293 C-38.83608756 46.32597735 -37.03475632 44.05921116 -35.484375 41.41796875 C-33.67942967 38.4778078 -31.47057268 36.40555761 -29 34 C-27.03885698 31.82942798 -25.14416978 29.60406935 -23.25 27.375 C-22.72631836 26.76180908 -22.20263672 26.14861816 -21.66308594 25.5168457 C-17.74649357 20.9162237 -13.92065808 16.24604396 -10.11328125 11.5546875 C-6.8485042 7.60798844 -3.4389655 3.79504367 0 0 Z " fill="#0C0D0B" transform="translate(352,212)"/>
<path d="M0 0 C4.29 0 8.58 0 13 0 C13 26.4 13 52.8 13 80 C8.71 80 4.42 80 0 80 C0 53.6 0 27.2 0 0 Z " fill="#080807" transform="translate(364,298)"/>
<path d="M0 0 C3.96 0 7.92 0 12 0 C12 25.74 12 51.48 12 78 C8.04 78 4.08 78 0 78 C0 52.26 0 26.52 0 0 Z " fill="#0A0B0A" transform="translate(224,173)"/>
<path d="M0 0 C6.6 0 13.2 0 20 0 C20 0.33 20 0.66 20 1 C25.445 1.495 25.445 1.495 31 2 C31 2.33 31 2.66 31 3 C29.515 3.07347656 29.515 3.07347656 28 3.1484375 C19.63636966 3.51226183 19.63636966 3.51226183 11.4375 5.0625 C8.11546451 5.96850968 5.42138371 6.17106919 2 6 C3.32 5.01 4.64 4.02 6 3 C3.03 2.505 3.03 2.505 0 2 C0 1.34 0 0.68 0 0 Z " fill="#E4E6E2" transform="translate(252,86)"/>
<path d="M0 0 C2.31 0.33 4.62 0.66 7 1 C6.34 2.32 5.68 3.64 5 5 C5.66 5.33 6.32 5.66 7 6 C6.34 6 5.68 6 5 6 C5 6.66 5 7.32 5 8 C2.03 8 -0.94 8 -4 8 C-3.67 6.35 -3.34 4.7 -3 3 C-2.34 3 -1.68 3 -1 3 C-0.67 2.01 -0.34 1.02 0 0 Z " fill="#F4F5EF" transform="translate(252,482)"/>
<path d="M0 0 C4.455 0.99 4.455 0.99 9 2 C9 1.34 9 0.68 9 0 C10.32 0.33 11.64 0.66 13 1 C13 2.32 13 3.64 13 5 C8.38 5 3.76 5 -1 5 C-0.67 3.35 -0.34 1.7 0 0 Z " fill="#DCDDD7" transform="translate(364,293)"/>
<path d="M0 0 C9.27734375 -0.09765625 9.27734375 -0.09765625 12 0 C13 1 13 1 13.09765625 2.84765625 C13.04882812 5.92382812 13.04882812 5.92382812 13 9 C12.67 9 12.34 9 12 9 C12 6.69 12 4.38 12 2 C8.7 2 5.4 2 2 2 C2 6.29 2 10.58 2 15 C1.67 15 1.34 15 1 15 C0.67 10.05 0.34 5.1 0 0 Z " fill="#676864" transform="translate(100,301)"/>
<path d="M0 0 C3.5743708 2.38291387 4.35051219 4.28773658 6.1875 8.125 C6.71730469 9.22070312 7.24710938 10.31640625 7.79296875 11.4453125 C8.19128906 12.28835938 8.58960938 13.13140625 9 14 C7.35 14.33 5.7 14.66 4 15 C4 14.34 4 13.68 4 13 C3.34 13 2.68 13 2 13 C2.33 11.68 2.66 10.36 3 9 C2.34 8.67 1.68 8.34 1 8 C1.33 7.34 1.66 6.68 2 6 C1.39421747 3.98072489 0.73080266 1.97746603 0 0 Z " fill="#D0D2CC" transform="translate(126,387)"/>
<path d="M0 0 C0.94875 0.350625 1.8975 0.70125 2.875 1.0625 C2.875 1.7225 2.875 2.3825 2.875 3.0625 C5.845 3.5575 5.845 3.5575 8.875 4.0625 C8.875 4.3925 8.875 4.7225 8.875 5.0625 C3.30926396 5.25778898 -0.74262926 4.61335259 -6.125 3.0625 C-9.78409475 2.61131081 -13.44729795 2.31521732 -17.125 2.0625 C-17.125 1.7325 -17.125 1.4025 -17.125 1.0625 C-16.28195312 1.00191406 -15.43890625 0.94132812 -14.5703125 0.87890625 C-13.47460938 0.79511719 -12.37890625 0.71132812 -11.25 0.625 C-10.15945313 0.54378906 -9.06890625 0.46257812 -7.9453125 0.37890625 C-1.24327957 -0.37298387 -1.24327957 -0.37298387 0 0 Z " fill="#D8D9D6" transform="translate(333.125,86.9375)"/>
<path d="M0 0 C1.81325551 0.11351517 3.62563357 0.24112961 5.4375 0.375 C6.95150391 0.47941406 6.95150391 0.47941406 8.49609375 0.5859375 C9.73552734 0.79089844 9.73552734 0.79089844 11 1 C11.33 1.66 11.66 2.32 12 3 C11.01 4.32 10.02 5.64 9 7 C7.4972763 6.02501855 5.99788037 5.04490611 4.5 4.0625 C3.6646875 3.51722656 2.829375 2.97195313 1.96875 2.41015625 C1.3190625 1.94480469 0.669375 1.47945313 0 1 C0 0.67 0 0.34 0 0 Z " fill="#DBDCD7" transform="translate(193,440)"/>
<path d="M0 0 C0.33 0 0.66 0 1 0 C1.32332002 4.63425362 0.8644432 7.28683289 -2 11 C-2.99 11.33 -3.98 11.66 -5 12 C-5.99 11.34 -6.98 10.68 -8 10 C-6.69118353 8.33043913 -5.37785174 6.66441696 -4.0625 5 C-2.96615234 3.6078125 -2.96615234 3.6078125 -1.84765625 2.1875 C-1.23792969 1.465625 -0.62820313 0.74375 0 0 Z " fill="#D0D0CB" transform="translate(361,221)"/>
<path d="M0 0 C0.33 0.99 0.66 1.98 1 3 C-2.3 6.63 -5.6 10.26 -9 14 C-9.66 13.67 -10.32 13.34 -11 13 C-7.37 8.71 -3.74 4.42 0 0 Z " fill="#3B3B39" transform="translate(249,334)"/>
<path d="M0 0 C0.33 0.66 0.66 1.32 1 2 C1.66 2 2.32 2 3 2 C2.34 4.31 1.68 6.62 1 9 C-3.875 4.375 -3.875 4.375 -5 1 C-3.35 0.67 -1.7 0.34 0 0 Z " fill="#E2E2DD" transform="translate(149,390)"/>
<path d="M0 0 C0.66 0.33 1.32 0.66 2 1 C1.505 1.433125 1.01 1.86625 0.5 2.3125 C-1.33218192 3.99740483 -1.33218192 3.99740483 -1 7 C-1.99 7 -2.98 7 -4 7 C-4 7.66 -4 8.32 -4 9 C-6.475 8.01 -6.475 8.01 -9 7 C-6.03716687 4.61327331 -3.05729491 2.2646629 0 0 Z " fill="#DCDDD7" transform="translate(206,124)"/>
<path d="M0 0 C0.33 0.99 0.66 1.98 1 3 C-1.97 6.3 -4.94 9.6 -8 13 C-8.66 12.67 -9.32 12.34 -10 12 C-8.88266271 10.49428343 -7.75589965 8.99555708 -6.625 7.5 C-5.99851562 6.6646875 -5.37203125 5.829375 -4.7265625 4.96875 C-4.15679687 4.3190625 -3.58703125 3.669375 -3 3 C-2.34 3 -1.68 3 -1 3 C-0.67 2.01 -0.34 1.02 0 0 Z " fill="#CECECB" transform="translate(352,232)"/>
<path d="M0 0 C0.33 0.66 0.66 1.32 1 2 C1.66 2.33 2.32 2.66 3 3 C1.02 4.32 -0.96 5.64 -3 7 C-3.33 6.34 -3.66 5.68 -4 5 C-4.66 4.67 -5.32 4.34 -6 4 C-4.02 2.68 -2.04 1.36 0 0 Z " fill="#E0E1DC" transform="translate(196,131)"/>
<path d="M0 0 C0.33 0.99 0.66 1.98 1 3 C1.66 3.33 2.32 3.66 3 4 C2.8125 6.375 2.8125 6.375 2 9 C-0.5625 10.3125 -0.5625 10.3125 -3 11 C-2.67 9.35 -2.34 7.7 -2 6 C-1.34 6 -0.68 6 0 6 C0 4.02 0 2.04 0 0 Z " fill="#C7C7C2" transform="translate(488,348)"/>
<path d="M0 0 C2.51699845 2.51699845 3.10964078 4.57554146 4 8 C3.625 10.375 3.625 10.375 3 12 C2.34 11.01 1.68 10.02 1 9 C0.34 9 -0.32 9 -1 9 C-1 8.01 -1 7.02 -1 6 C-0.34 6 0.32 6 1 6 C0.67 4.02 0.34 2.04 0 0 Z " fill="#50504D" transform="translate(121,346)"/>
<path d="M0 0 C1.0828125 0.7425 1.0828125 0.7425 2.1875 1.5 C5.14848659 3.07919285 6.71253029 3.28178312 10 3 C10.33 3.99 10.66 4.98 11 6 C6.13103697 5.40380045 1.67209049 4.43023178 -3 3 C-2.01 2.01 -1.02 1.02 0 0 Z " fill="#BDBEBB" transform="translate(345,90)"/>
<path d="M0 0 C0.66 1.32 1.32 2.64 2 4 C-0.31 5.98 -2.62 7.96 -5 10 C-5.66 9.67 -6.32 9.34 -7 9 C-4.69 6.03 -2.38 3.06 0 0 Z " fill="#292B28" transform="translate(260,320)"/>
<path d="M0 0 C1.32 0.66 2.64 1.32 4 2 C3.34 3.98 2.68 5.96 2 8 C0.4375 6.25 0.4375 6.25 -1 4 C-0.6875 1.75 -0.6875 1.75 0 0 Z " fill="#E0E1DC" transform="translate(471,348)"/>
<path d="M0 0 C-1.36983503 3.16115776 -1.9890638 3.9927092 -5 6 C-5.66 4.35 -6.32 2.7 -7 1 C-4.50935112 0.31292445 -2.62113708 0 0 0 Z " fill="#E6E7E4" transform="translate(271,307)"/>
<path d="M0 0 C0.33 0.99 0.66 1.98 1 3 C-0.21484375 4.82421875 -0.21484375 4.82421875 -1.9375 6.6875 C-2.50339844 7.31011719 -3.06929688 7.93273437 -3.65234375 8.57421875 C-4.09707031 9.04472656 -4.54179687 9.51523437 -5 10 C-5.66 9.67 -6.32 9.34 -7 9 C-4.69 6.03 -2.38 3.06 0 0 Z " fill="#CACBC8" transform="translate(312,279)"/>
<path d="M0 0 C1.32 0 2.64 0 4 0 C4.33 1.98 4.66 3.96 5 6 C4.01 6.495 4.01 6.495 3 7 C2.01 4.69 1.02 2.38 0 0 Z " fill="#DDDDD8" transform="translate(138,381)"/>
<path d="M0 0 C2.125 0.9375 2.125 0.9375 4 2 C3.01 3.485 3.01 3.485 2 5 C0.68 4.67 -0.64 4.34 -2 4 C-2 3.01 -2 2.02 -2 1 C-1.34 0.67 -0.68 0.34 0 0 Z " fill="#323231" transform="translate(240,360)"/>
<path d="M0 0 C0.33 0.99 0.66 1.98 1 3 C-0.98 4.98 -2.96 6.96 -5 9 C-5.66 8.67 -6.32 8.34 -7 8 C-4.69 5.36 -2.38 2.72 0 0 Z " fill="#313131" transform="translate(340,226)"/>
<path d="M0 0 C2.125 0.9375 2.125 0.9375 4 2 C4.99 1.34 5.98 0.68 7 0 C7 1.65 7 3.3 7 5 C0.25 3.25 0.25 3.25 -2 1 C-1.34 0.67 -0.68 0.34 0 0 Z " fill="#D6D7D3" transform="translate(218,453)"/>
<path d="M0 0 C2.475 0.99 2.475 0.99 5 2 C4.67 2.66 4.34 3.32 4 4 C1.69 3.67 -0.62 3.34 -3 3 C-2.01 2.01 -1.02 1.02 0 0 Z " fill="#E3E4DE" transform="translate(471,368)"/>
<path d="M0 0 C0.33 0.66 0.66 1.32 1 2 C-0.91522803 6.03205902 -1.85351878 6.92675939 -6 9 C-4.02 6.03 -2.04 3.06 0 0 Z " fill="#C8C8C6" transform="translate(248,355)"/>
<path d="M0 0 C0.33 0.66 0.66 1.32 1 2 C-0.98 4.31 -2.96 6.62 -5 9 C-5.66 8.67 -6.32 8.34 -7 8 C-4.69 5.36 -2.38 2.72 0 0 Z " fill="#272725" transform="translate(315,256)"/>
<path d="M0 0 C2.125 0.375 2.125 0.375 4 1 C3.67 2.32 3.34 3.64 3 5 C1.35 4.01 -0.3 3.02 -2 2 C-1.34 1.34 -0.68 0.68 0 0 Z " fill="#DBDBD7" transform="translate(172,421)"/>
<path d="M0 0 C0.66 0.66 1.32 1.32 2 2 C0.35 3.65 -1.3 5.3 -3 7 C-3.625 5.125 -3.625 5.125 -4 3 C-3.34 2.34 -2.68 1.68 -2 1 C-1.34 1.33 -0.68 1.66 0 2 C0 1.34 0 0.68 0 0 Z " fill="#DCDDD9" transform="translate(294,277)"/>
<path d="M0 0 C2.475 0.99 2.475 0.99 5 2 C5 3.32 5 4.64 5 6 C4.01 5.67 3.02 5.34 2 5 C0.8125 2.4375 0.8125 2.4375 0 0 Z " fill="#1A1B1A" transform="translate(387,109)"/>
<path d="M0 0 C0.94875 0.350625 1.8975 0.70125 2.875 1.0625 C2.875 1.7225 2.875 2.3825 2.875 3.0625 C-0.49962715 2.51526317 -2.20735 2.0076 -5.125 0.0625 C-3.125 -0.9375 -3.125 -0.9375 0 0 Z " fill="#F1F2EA" transform="translate(225.125,450.9375)"/>
<path d="M0 0 C0.66 0 1.32 0 2 0 C2 2.31 2 4.62 2 7 C1.01 7 0.02 7 -1 7 C-0.67 4.69 -0.34 2.38 0 0 Z " fill="#EBEBE4" transform="translate(490,352)"/>
<path d="M0 0 C0.5534764 2.07553648 1 3.84365964 1 6 C-0.65 6.33 -2.3 6.66 -4 7 C-2.92598892 4.08482708 -2.22189824 2.22189824 0 0 Z " fill="#D0D1CD" transform="translate(319,271)"/>
<path d="M0 0 C0.99 0.33 1.98 0.66 3 1 C3 1.99 3 2.98 3 4 C2.01 4.33 1.02 4.66 0 5 C-0.99 4.34 -1.98 3.68 -3 3 C-2.01 2.01 -1.02 1.02 0 0 Z " fill="#DADBD6" transform="translate(356,228)"/>
</svg>
